<?xml version="1.0" standalone="no"?>
<!DOCTYPE svg PUBLIC "-//W3C//DTD SVG 20010904//EN"
 "http://www.w3.org/TR/2001/REC-SVG-20010904/DTD/svg10.dtd">
<svg version="1.0" xmlns="http://www.w3.org/2000/svg"
 width="260.000000pt" height="260.000000pt" viewBox="0 0 260.000000 260.000000"
 preserveAspectRatio="xMidYMid meet">
<metadata>
Created by potrace 1.14, written by Peter Selinger 2001-2017
</metadata>
<g transform="translate(0.000000,260.000000) scale(0.100000,-0.100000)"
fill="#000000" stroke="none">
<path d="M0 1300 l0 -1300 1300 0 1300 0 0 1300 0 1300 -1300 0 -1300 0 0
-1300z m1767 377 c78 -58 167 -159 203 -232 l31 -59 -50 -50 -49 -49 -46 27
c-26 15 -52 36 -59 47 -6 10 -17 19 -24 19 -6 0 -13 4 -15 9 -1 5 -28 36 -59
69 -31 33 -69 85 -84 116 -24 48 -26 58 -14 73 17 20 89 73 99 73 4 0 34 -19
67 -43z m581 1 c19 -19 14 -56 -8 -63 -27 -9 -25 -16 10 -52 34 -35 33 -36
-29 -53 l-44 -12 47 -47 c57 -58 60 -73 10 -60 -19 6 -44 9 -55 7 -19 -3 -11
-19 66 -124 18 -25 -8 -33 -64 -18 -30 8 -58 13 -63 12 -4 -2 12 -33 37 -70
67 -101 60 -113 -40 -68 -38 17 -70 28 -73 25 -3 -3 4 -15 15 -28 11 -12 36
-45 56 -72 54 -76 40 -83 -78 -40 -54 19 -100 33 -103 30 -5 -5 81 -177 101
-203 7 -9 6 -18 -6 -29 -15 -15 -23 -12 -109 39 -51 31 -94 55 -95 54 -4 -4
65 -208 76 -227 7 -12 5 -21 -7 -33 -16 -14 -27 -11 -132 39 -63 29 -116 52
-118 50 -3 -3 48 -145 73 -202 10 -21 11 -34 4 -39 -6 -3 -60 24 -121 60 -61
37 -113 65 -115 62 -3 -2 10 -55 27 -116 22 -77 29 -115 22 -122 -8 -8 -43 12
-112 62 -56 39 -104 70 -107 67 -3 -3 5 -51 16 -107 20 -93 21 -120 3 -120 -4
0 -38 29 -77 64 -38 35 -72 60 -73 55 -2 -6 3 -31 11 -57 28 -89 28 -89 12
-96 -11 -4 -33 10 -65 40 -60 57 -90 78 -90 65 0 -6 9 -33 20 -61 11 -28 20
-55 20 -60 0 -23 -32 -6 -91 49 -35 33 -64 59 -66 58 -1 -1 6 -28 14 -60 9
-31 14 -60 10 -63 -3 -3 -34 17 -68 45 -35 28 -64 49 -66 47 -2 -2 0 -22 6
-45 9 -39 8 -41 -16 -41 -15 0 -34 12 -50 30 -31 37 -43 38 -43 4 0 -14 -5
-24 -11 -22 -6 2 -10 7 -10 11 1 4 1 23 1 42 0 19 4 35 9 35 5 0 28 -19 52
-42 35 -36 44 -40 47 -25 2 10 -1 31 -7 48 -17 49 11 47 74 -6 30 -26 55 -44
55 -41 0 4 -5 27 -11 52 -9 34 -9 48 0 57 8 8 26 -4 71 -48 33 -32 62 -57 65
-54 2 3 -6 35 -20 72 -21 60 -22 67 -7 67 9 0 50 -30 90 -66 39 -36 72 -59 72
-52 0 8 -11 48 -25 88 -28 82 -22 107 18 69 78 -77 138 -131 141 -128 4 5 -32
187 -39 199 -3 5 2 13 12 18 14 8 39 -5 116 -60 54 -39 100 -68 102 -66 2 2
-9 49 -25 103 -16 55 -30 106 -30 113 0 30 35 20 125 -33 53 -31 99 -54 102
-52 5 6 -41 145 -64 190 -24 48 8 44 138 -16 65 -31 119 -53 119 -49 0 4 -19
64 -42 134 -27 82 -39 131 -33 137 6 6 46 -13 105 -49 52 -32 97 -56 99 -54 3
2 -21 53 -52 113 -72 140 -68 148 63 102 49 -17 91 -31 94 -31 3 0 -22 38 -55
85 -34 47 -59 89 -55 92 4 4 41 -7 83 -25 42 -17 79 -29 82 -27 2 3 -19 39
-48 80 -29 41 -50 79 -47 84 3 5 23 3 43 -4 21 -7 53 -16 72 -20 l34 -7 -47
67 c-56 80 -55 96 3 85 23 -4 41 -5 41 -2 0 3 -13 20 -30 37 -28 29 -29 32
-14 53 8 12 26 22 40 22 29 0 31 11 4 35 -26 24 -27 65 -1 65 26 0 37 18 17
26 -9 3 -16 12 -16 20 0 17 12 18 28 2z m-1355 -672 c72 -31 210 -196 191
-228 -4 -7 -3 -8 4 -4 14 8 32 -24 32 -58 0 -42 -76 -104 -107 -88 -10 5 -31
16 -46 23 -16 7 -51 36 -78 64 -98 101 -157 217 -124 245 18 15 35 5 35 -23 1
-28 34 -103 65 -143 15 -20 23 -40 19 -51 -5 -14 -4 -15 4 -4 8 12 19 6 58
-28 52 -45 88 -60 113 -44 23 15 25 40 6 89 -40 104 -161 224 -226 224 -36 0
-47 18 -17 29 31 13 34 13 71 -3z m-230 -718 c13 -13 22 -29 20 -36 -3 -8 -15
-2 -36 18 -29 28 -33 29 -44 14 -15 -21 -26 -14 -17 10 9 23 49 20 77 -6z"/>
<path d="M1663 1658 c-15 -31 -23 -68 -14 -68 4 0 16 -19 28 -42 58 -118 204
-225 247 -182 22 22 20 42 -10 103 -34 68 -116 152 -182 185 -28 14 -53 26
-55 26 -2 0 -9 -10 -14 -22z"/>
</g>
</svg>
